<svg xmlns="http://www.w3.org/2000/svg" xmlns:xlink="http://www.w3.org/1999/xlink" width="200" zoomAndPan="magnify" viewBox="0 0 150 149.999998" height="200" preserveAspectRatio="xMidYMid meet" version="1.0"><defs><g/><clipPath id="f75101db6e"><path d="M 112.023438 36.292969 L 140.285156 36.292969 L 140.285156 70.835938 L 112.023438 70.835938 Z M 112.023438 36.292969 " clip-rule="nonzero"/></clipPath><clipPath id="46196d7702"><path d="M 132.5 60.488281 L 146.628906 60.488281 L 146.628906 79.328125 L 132.5 79.328125 Z M 132.5 60.488281 " clip-rule="nonzero"/></clipPath><clipPath id="4b62b0c0ef"><path d="M 27 57 L 106 57 L 106 78 L 27 78 Z M 27 57 " clip-rule="nonzero"/></clipPath><clipPath id="4627935089"><path d="M 28.925781 79.511719 L 27.242188 64.691406 L 106.027344 55.742188 L 107.710938 70.5625 Z M 28.925781 79.511719 " clip-rule="nonzero"/></clipPath><clipPath id="7075d4b9eb"><path d="M 28.925781 79.511719 L 27.242188 64.691406 L 106.027344 55.742188 L 107.710938 70.5625 Z M 28.925781 79.511719 " clip-rule="nonzero"/></clipPath></defs><g clip-path="url(#f75101db6e)"><path fill="#ffffff" d="M 131.347656 36.382812 C 131.511719 36.382812 131.675781 36.382812 131.839844 36.382812 C 131.839844 36.410156 131.839844 36.4375 131.839844 36.464844 C 132.21875 36.640625 132.320312 37.386719 132.25 38.265625 C 132.136719 39.640625 131.398438 41.394531 131.265625 43.261719 C 131.113281 45.414062 131.785156 47.558594 131.183594 49.15625 C 130.539062 50.875 129.289062 51.890625 129.136719 53.414062 C 128.972656 55.066406 129.859375 57.84375 131.019531 58.820312 C 131.585938 59.296875 132.835938 59.488281 133.722656 59.3125 C 134.628906 59.132812 134.988281 58.136719 136.179688 58.164062 C 136.898438 58.183594 137.535156 58.816406 138.226562 59.148438 C 138.949219 59.496094 139.605469 59.761719 140.273438 60.132812 C 139.058594 60.542969 137.347656 60.949219 136.671875 62.015625 C 136.289062 62.613281 136.246094 63.585938 135.769531 64.144531 C 135.203125 64.808594 133.96875 65.441406 132.984375 65.945312 C 130.21875 67.367188 126.535156 67.523438 123.320312 66.027344 C 121.042969 67.953125 119.574219 71.121094 115.625 71.105469 C 115.5 70.449219 116.5 70.089844 116.195312 69.792969 C 115.148438 69.925781 113.40625 70.714844 112.511719 69.957031 C 112.65625 69.039062 113.480469 68.796875 113.984375 68.238281 C 113.636719 68.300781 112.921875 68.425781 112.59375 68.238281 C 112.957031 67.285156 113.953125 66.757812 114.804688 66.273438 C 117.398438 64.800781 120.585938 63.765625 123.320312 62.425781 C 121.523438 61.277344 116.964844 59.601562 118.082031 56.28125 C 116.171875 55.265625 114.5 53.589844 114.886719 50.550781 C 114.078125 49.476562 112.832031 48.539062 112.839844 47.027344 C 112.84375 46.65625 113.179688 46.246094 113.167969 45.882812 C 113.152344 45.433594 112.675781 44.800781 112.511719 44.324219 C 112.316406 43.765625 112.191406 43.269531 112.019531 42.6875 C 112.019531 42.277344 112.019531 41.867188 112.019531 41.460938 C 112.53125 40.203125 113.347656 41.792969 113.824219 42.605469 C 115.671875 45.769531 117.453125 48.535156 119.964844 50.878906 C 120.738281 51.597656 121.511719 52.179688 122.339844 52.84375 C 122.519531 52.984375 122.675781 53.410156 122.996094 53.253906 C 122.957031 51.308594 123.066406 49.710938 123.648438 48.257812 C 124.007812 47.359375 124.804688 46.625 124.960938 45.882812 C 125.054688 45.4375 124.917969 45.019531 124.960938 44.570312 C 125.175781 42.242188 126.414062 40.824219 128.316406 39.984375 C 128.441406 38.742188 129.105469 38.042969 130.199219 37.773438 C 130.484375 37.210938 130.871094 36.75 131.347656 36.382812 Z M 116.851562 70.367188 C 118.011719 70.332031 118.828125 69.457031 119.554688 68.8125 C 121.871094 66.757812 123.824219 64.527344 126.597656 62.996094 C 125.761719 63.964844 124.660156 64.664062 123.894531 65.699219 C 125.546875 66.253906 127.15625 66.722656 128.890625 66.683594 C 130.640625 66.640625 133.90625 65.101562 134.867188 64.226562 C 135.679688 63.488281 135.675781 62.285156 136.261719 61.441406 C 136.828125 60.625 138.199219 60.378906 139.046875 59.964844 C 137.640625 60.027344 137.308594 58.667969 136.097656 58.738281 C 135.585938 58.765625 135.226562 59.277344 134.785156 59.476562 C 131.238281 61.074219 128.804688 57.882812 128.480469 54.972656 C 128.078125 51.320312 130.761719 50.578125 131.019531 47.4375 C 131.136719 46.007812 130.636719 44.664062 130.691406 43.34375 C 130.78125 41.160156 132.054688 39.21875 131.511719 36.953125 C 130.519531 36.988281 130.597656 38.21875 130.367188 38.917969 C 130.085938 39.757812 129.710938 40.519531 129.382812 41.128906 C 129.605469 40.179688 129.867188 39.269531 130.035156 38.265625 C 129.074219 38.453125 129.09375 39.8125 128.808594 40.804688 C 128.503906 41.867188 128.132812 42.988281 127.824219 43.832031 C 127.953125 42.785156 128.101562 41.761719 128.234375 40.722656 C 124.363281 41.800781 125.71875 48.226562 125.367188 52.597656 C 124.800781 51.089844 125.078125 48.738281 124.878906 46.863281 C 123.117188 49.195312 123.375 54.335938 124.058594 57.347656 C 123.929688 56.769531 123.664062 56.320312 123.566406 55.707031 C 120.335938 55.679688 123.972656 59.644531 124.140625 60.539062 C 123.554688 59.554688 121.757812 58.167969 121.683594 56.609375 C 121.652344 55.898438 121.992188 55.03125 123.078125 55.054688 C 123.078125 54.78125 123.078125 54.507812 123.078125 54.234375 C 119.894531 51.828125 116.777344 48.863281 114.804688 45.308594 C 114.15625 44.136719 113.679688 42.726562 112.511719 42.03125 C 112.867188 44.679688 114.078125 46.910156 114.96875 48.746094 C 114.511719 48.027344 114.082031 47.289062 113.578125 46.617188 C 113.640625 49.203125 116.011719 50.625 116.933594 52.351562 C 116.363281 51.914062 115.992188 51.273438 115.296875 50.957031 C 115.25 55.152344 119.03125 55.957031 121.109375 57.753906 C 120.289062 57.324219 119.425781 56.929688 118.570312 56.527344 C 118.21875 57.464844 118.457031 58.339844 118.816406 58.820312 C 119.980469 60.367188 122.957031 61.40625 124.386719 62.503906 C 121.597656 63.753906 118.648438 65.089844 115.953125 66.355469 C 115.035156 66.785156 113.941406 67.082031 113.332031 67.910156 C 115.089844 67.839844 116.445312 66.929688 117.835938 66.765625 C 116.203125 67.589844 114.390625 68.234375 113.332031 69.628906 C 115.972656 70.058594 117.617188 68.347656 119.390625 67.910156 C 118.472656 68.65625 117.382812 69.234375 116.851562 70.367188 Z M 116.851562 70.367188 " fill-opacity="1" fill-rule="evenodd"/></g><g clip-path="url(#46196d7702)"><path fill="#ffffff" d="M 145.285156 78.601562 C 145.277344 78.835938 145.085938 79.023438 144.851562 79.023438 L 133.9375 79.023438 C 133.703125 79.023438 133.507812 78.835938 133.5 78.601562 L 133.015625 66.972656 C 133.003906 66.757812 133.179688 66.578125 133.394531 66.578125 L 136.175781 66.578125 C 136.050781 67.023438 135.902344 67.449219 135.738281 67.847656 L 135.597656 68.183594 L 137.292969 68.183594 L 137.363281 68.070312 C 137.429688 67.96875 137.488281 67.855469 137.542969 67.71875 C 137.6875 67.355469 137.777344 66.96875 137.832031 66.578125 L 140.953125 66.578125 C 141.011719 66.96875 141.097656 67.355469 141.246094 67.71875 C 141.300781 67.855469 141.359375 67.972656 141.421875 68.070312 L 141.492188 68.183594 L 143.191406 68.183594 L 143.050781 67.847656 C 142.890625 67.464844 142.746094 67.054688 142.625 66.628906 C 142.621094 66.609375 142.613281 66.59375 142.609375 66.578125 L 145.390625 66.578125 C 145.609375 66.578125 145.78125 66.757812 145.773438 66.972656 Z M 136.628906 66.761719 C 136.644531 66.703125 136.664062 66.640625 136.679688 66.578125 C 136.722656 66.425781 136.761719 66.261719 136.792969 66.089844 C 136.8125 65.976562 136.828125 65.863281 136.839844 65.746094 C 136.855469 65.5625 136.867188 65.375 136.875 65.191406 C 136.890625 64.890625 136.90625 64.601562 136.953125 64.320312 C 137.035156 63.820312 137.226562 63.285156 137.539062 62.679688 C 137.5625 62.636719 137.585938 62.589844 137.617188 62.539062 C 137.503906 62.828125 137.507812 63.140625 137.507812 63.425781 C 137.507812 63.472656 137.507812 63.515625 137.507812 63.5625 C 137.503906 64.171875 137.488281 64.667969 137.46875 65.113281 L 137.464844 65.15625 C 137.449219 65.464844 137.433594 65.78125 137.40625 66.089844 C 137.390625 66.253906 137.371094 66.417969 137.34375 66.578125 C 137.292969 66.910156 137.210938 67.234375 137.089844 67.539062 C 137.066406 67.597656 137.042969 67.648438 137.019531 67.699219 L 136.320312 67.699219 C 136.433594 67.398438 136.535156 67.085938 136.628906 66.761719 Z M 137.949219 65.179688 L 137.953125 65.140625 C 137.976562 64.683594 137.988281 64.183594 137.992188 63.566406 C 137.992188 63.519531 137.992188 63.46875 137.992188 63.421875 C 137.992188 63.097656 137.992188 62.789062 138.148438 62.554688 C 138.277344 62.359375 138.503906 62.210938 138.785156 62.125 C 138.863281 62.105469 139.246094 62.039062 139.34375 62.039062 L 139.347656 62.039062 C 139.378906 62.042969 139.410156 62.042969 139.4375 62.039062 C 139.519531 62.035156 139.917969 62.105469 140.003906 62.125 C 140.167969 62.175781 140.464844 62.292969 140.636719 62.554688 C 140.796875 62.789062 140.792969 63.097656 140.792969 63.421875 L 140.792969 63.566406 C 140.800781 64.203125 140.8125 64.6875 140.835938 65.140625 L 140.835938 65.175781 C 140.851562 65.46875 140.867188 65.777344 140.894531 66.089844 L 137.890625 66.089844 C 137.921875 65.78125 137.9375 65.472656 137.949219 65.179688 Z M 138.246094 61.613281 C 138.628906 60.960938 139.351562 60.980469 139.382812 60.984375 L 139.40625 60.984375 C 139.414062 60.984375 140.152344 60.953125 140.542969 61.613281 C 140.632812 61.769531 140.722656 61.902344 140.808594 62.019531 C 140.625 61.859375 140.398438 61.734375 140.136719 61.65625 C 140.09375 61.644531 139.628906 61.554688 139.4375 61.554688 C 139.425781 61.554688 139.414062 61.554688 139.40625 61.554688 C 139.398438 61.558594 139.390625 61.558594 139.378906 61.554688 C 139.210938 61.546875 138.695312 61.644531 138.652344 61.65625 C 138.390625 61.734375 138.160156 61.859375 137.980469 62.019531 C 138.066406 61.902344 138.152344 61.769531 138.246094 61.613281 Z M 141.246094 62.679688 C 141.558594 63.285156 141.75 63.824219 141.835938 64.320312 C 141.882812 64.601562 141.894531 64.890625 141.910156 65.191406 C 141.921875 65.375 141.929688 65.5625 141.945312 65.746094 C 141.957031 65.863281 141.972656 65.976562 141.996094 66.089844 C 142.027344 66.261719 142.066406 66.425781 142.105469 66.578125 C 142.125 66.640625 142.140625 66.703125 142.15625 66.761719 C 142.25 67.085938 142.355469 67.398438 142.46875 67.699219 L 141.769531 67.699219 C 141.742188 67.648438 141.71875 67.597656 141.695312 67.539062 C 141.574219 67.234375 141.496094 66.910156 141.441406 66.578125 C 141.417969 66.417969 141.398438 66.253906 141.382812 66.089844 C 141.351562 65.78125 141.335938 65.464844 141.320312 65.152344 L 141.320312 65.113281 C 141.296875 64.671875 141.285156 64.191406 141.277344 63.5625 L 141.277344 63.421875 C 141.28125 63.140625 141.28125 62.828125 141.171875 62.535156 C 141.199219 62.585938 141.222656 62.636719 141.246094 62.679688 Z M 145.898438 66.089844 L 142.488281 66.089844 C 142.464844 65.964844 142.441406 65.832031 142.429688 65.703125 C 142.414062 65.527344 142.40625 65.34375 142.394531 65.167969 C 142.382812 64.863281 142.367188 64.550781 142.3125 64.238281 C 142.222656 63.691406 142.015625 63.109375 141.679688 62.457031 C 141.589844 62.28125 141.464844 62.054688 141.296875 61.859375 C 141.1875 61.726562 141.082031 61.570312 140.960938 61.367188 C 140.449219 60.5 139.515625 60.496094 139.394531 60.5 C 139.269531 60.496094 138.339844 60.5 137.824219 61.367188 C 137.707031 61.570312 137.601562 61.726562 137.488281 61.859375 C 137.320312 62.0625 137.191406 62.296875 137.105469 62.460938 C 136.773438 63.109375 136.566406 63.691406 136.472656 64.238281 C 136.421875 64.550781 136.40625 64.863281 136.390625 65.167969 C 136.382812 65.34375 136.371094 65.527344 136.355469 65.703125 C 136.34375 65.832031 136.324219 65.964844 136.296875 66.089844 L 132.890625 66.089844 C 132.671875 66.089844 132.5 66.273438 132.507812 66.488281 L 133.035156 79.089844 C 133.042969 79.324219 133.238281 79.507812 133.472656 79.507812 L 145.316406 79.507812 C 145.550781 79.507812 145.742188 79.324219 145.753906 79.089844 L 146.277344 66.488281 C 146.289062 66.273438 146.113281 66.089844 145.898438 66.089844 " fill-opacity="1" fill-rule="nonzero"/></g><g clip-path="url(#4b62b0c0ef)"><g clip-path="url(#4627935089)"><g clip-path="url(#7075d4b9eb)"><path fill="#ffffff" d="M 95.515625 58.316406 C 95.542969 58.316406 95.574219 58.3125 95.605469 58.3125 C 95.574219 58.3125 95.542969 58.316406 95.515625 58.316406 M 27.898438 67.960938 C 29.847656 70.507812 32.144531 72.824219 34.875 74.53125 C 36.03125 75.253906 37.261719 75.863281 38.546875 76.320312 C 39.757812 76.753906 41.019531 77.050781 42.289062 77.230469 C 44.769531 77.582031 47.308594 77.421875 49.757812 76.9375 C 51.042969 76.679688 52.304688 76.328125 53.550781 75.921875 C 54.820312 75.511719 56.0625 75.027344 57.289062 74.503906 C 59.875 73.402344 62.375 72.105469 64.835938 70.753906 C 67.402344 69.351562 69.933594 67.886719 72.484375 66.460938 C 74.859375 65.136719 77.25 63.847656 79.707031 62.679688 C 82.042969 61.566406 84.445312 60.570312 86.917969 59.800781 C 88.328125 59.371094 89.761719 59.019531 91.214844 58.769531 C 92.671875 58.515625 94.148438 58.363281 95.625 58.3125 C 97.976562 58.25 100.328125 58.472656 102.613281 59.015625 C 102.597656 59.011719 102.578125 59.007812 102.5625 59.003906 C 103.03125 59.117188 103.5 59.242188 103.972656 59.363281 C 104.609375 59.527344 105.25 59.699219 105.878906 59.90625 C 105.371094 59.65625 104.851562 59.4375 104.328125 59.226562 C 103.847656 59.035156 103.363281 58.839844 102.878906 58.65625 C 102.214844 58.40625 101.535156 58.191406 100.851562 58.007812 C 99.511719 57.644531 98.144531 57.414062 96.761719 57.3125 C 95.390625 57.210938 94.003906 57.246094 92.636719 57.386719 C 91.28125 57.527344 89.9375 57.792969 88.617188 58.121094 C 85.867188 58.800781 83.203125 59.800781 80.621094 60.957031 C 77.964844 62.148438 75.386719 63.511719 72.839844 64.921875 C 70.277344 66.34375 67.746094 67.816406 65.183594 69.242188 C 62.714844 70.613281 60.214844 71.941406 57.636719 73.105469 C 55.957031 73.859375 54.242188 74.535156 52.484375 75.085938 C 50.253906 75.765625 47.957031 76.226562 45.621094 76.304688 C 43.941406 76.347656 42.257812 76.1875 40.621094 75.804688 C 38.839844 75.363281 37.125 74.675781 35.507812 73.816406 C 33.1875 72.554688 31.078125 70.941406 29.136719 69.152344 C 28.71875 68.761719 28.308594 68.363281 27.902344 67.960938 L 27.898438 67.960938 " fill-opacity="1" fill-rule="nonzero"/></g></g></g><g fill="#ffffff" fill-opacity="1"><g transform="translate(5.720431, 95.369157)"><g><path d="M 4.96875 -15.765625 C 5.5 -15.847656 6.113281 -15.890625 6.8125 -15.890625 C 6.925781 -15.890625 7.039062 -15.890625 7.15625 -15.890625 C 7.707031 -15.867188 8.085938 -15.84375 8.296875 -15.8125 C 8.503906 -15.78125 8.722656 -15.710938 8.953125 -15.609375 C 9.710938 -15.265625 10.269531 -14.78125 10.625 -14.15625 C 10.988281 -13.53125 11.1875 -12.800781 11.21875 -11.96875 C 11.21875 -11.90625 11.21875 -11.832031 11.21875 -11.75 C 11.207031 -11.34375 11.179688 -11.046875 11.140625 -10.859375 C 11.109375 -10.679688 11.003906 -10.40625 10.828125 -10.03125 C 10.503906 -9.332031 10.085938 -8.738281 9.578125 -8.25 C 9.078125 -7.769531 8.507812 -7.429688 7.875 -7.234375 C 7.457031 -7.097656 7.003906 -7.03125 6.515625 -7.03125 C 6.359375 -7.03125 6.070312 -7.046875 5.65625 -7.078125 C 5.238281 -7.109375 4.90625 -7.242188 4.65625 -7.484375 C 4.59375 -7.546875 4.546875 -7.578125 4.515625 -7.578125 C 4.515625 -7.578125 4.503906 -7.570312 4.484375 -7.5625 C 4.429688 -7.507812 4.347656 -6.84375 4.234375 -5.5625 C 4.234375 -5.507812 4.234375 -5.46875 4.234375 -5.4375 C 4.148438 -4.289062 4.066406 -3.484375 3.984375 -3.015625 C 3.921875 -2.628906 3.816406 -2.285156 3.671875 -1.984375 C 3.535156 -1.691406 3.414062 -1.546875 3.3125 -1.546875 C 3.21875 -1.546875 3.113281 -1.703125 3 -2.015625 C 2.894531 -2.265625 2.832031 -2.765625 2.8125 -3.515625 C 2.8125 -3.765625 2.8125 -4.039062 2.8125 -4.34375 C 2.8125 -5.550781 2.863281 -7.195312 2.96875 -9.28125 C 3.0625 -11.238281 3.109375 -12.523438 3.109375 -13.140625 C 3.109375 -13.222656 3.109375 -13.296875 3.109375 -13.359375 L 3.09375 -14.1875 L 2.640625 -14.3125 C 2.335938 -14.375 2.15625 -14.4375 2.09375 -14.5 C 2.03125 -14.5625 2 -14.613281 2 -14.65625 C 2 -14.707031 2.015625 -14.757812 2.046875 -14.8125 C 2.160156 -15 2.4375 -15.164062 2.875 -15.3125 C 3.320312 -15.457031 4.019531 -15.609375 4.96875 -15.765625 Z M 8.328125 -14.3125 C 8.179688 -14.363281 7.890625 -14.394531 7.453125 -14.40625 C 7.023438 -14.425781 6.71875 -14.4375 6.53125 -14.4375 C 6.1875 -14.4375 5.921875 -14.421875 5.734375 -14.390625 C 5.617188 -14.367188 5.378906 -14.34375 5.015625 -14.3125 L 4.46875 -14.234375 L 4.515625 -12.765625 C 4.546875 -11.703125 4.5625 -10.753906 4.5625 -9.921875 L 4.5625 -8.578125 L 4.96875 -8.421875 C 5.175781 -8.359375 5.441406 -8.328125 5.765625 -8.328125 C 5.890625 -8.328125 6.117188 -8.335938 6.453125 -8.359375 C 6.785156 -8.390625 7.128906 -8.476562 7.484375 -8.625 C 7.941406 -8.84375 8.363281 -9.175781 8.75 -9.625 C 9.132812 -10.070312 9.382812 -10.519531 9.5 -10.96875 C 9.5625 -11.1875 9.59375 -11.578125 9.59375 -12.140625 C 9.582031 -12.753906 9.476562 -13.234375 9.28125 -13.578125 C 9.082031 -13.921875 8.765625 -14.164062 8.328125 -14.3125 Z M 8.328125 -14.3125 "/></g></g></g><g fill="#ffffff" fill-opacity="1"><g transform="translate(16.268918, 95.369157)"><g><path d="M 4.234375 -11.5 C 4.703125 -11.675781 5.210938 -11.765625 5.765625 -11.765625 C 6.210938 -11.765625 6.523438 -11.734375 6.703125 -11.671875 C 6.890625 -11.617188 7.070312 -11.535156 7.25 -11.421875 C 7.664062 -11.148438 7.941406 -10.816406 8.078125 -10.421875 C 8.222656 -10.035156 8.296875 -9.703125 8.296875 -9.421875 C 8.296875 -9.210938 8.273438 -9.003906 8.234375 -8.796875 C 8.117188 -8.453125 7.894531 -8.097656 7.5625 -7.734375 C 7.238281 -7.378906 6.878906 -7.101562 6.484375 -6.90625 C 5.953125 -6.644531 5.457031 -6.484375 5 -6.421875 C 4.539062 -6.359375 4.203125 -6.328125 3.984375 -6.328125 C 3.585938 -6.328125 3.234375 -6.378906 2.921875 -6.484375 C 2.890625 -6.484375 2.863281 -6.484375 2.84375 -6.484375 C 2.789062 -6.484375 2.75 -6.46875 2.71875 -6.4375 C 2.695312 -6.40625 2.6875 -6.28125 2.6875 -6.0625 C 2.6875 -5.53125 2.800781 -5.054688 3.03125 -4.640625 C 3.269531 -4.222656 3.609375 -3.878906 4.046875 -3.609375 C 4.222656 -3.515625 4.394531 -3.445312 4.5625 -3.40625 C 4.726562 -3.363281 4.96875 -3.332031 5.28125 -3.3125 C 5.382812 -3.3125 5.476562 -3.3125 5.5625 -3.3125 C 5.988281 -3.3125 6.363281 -3.382812 6.6875 -3.53125 C 7.019531 -3.6875 7.414062 -4.003906 7.875 -4.484375 C 8.257812 -4.890625 8.507812 -5.09375 8.625 -5.09375 C 8.65625 -5.09375 8.671875 -5.070312 8.671875 -5.03125 C 8.691406 -5 8.703125 -4.96875 8.703125 -4.9375 C 8.703125 -4.820312 8.671875 -4.671875 8.609375 -4.484375 C 8.367188 -3.554688 7.648438 -2.773438 6.453125 -2.140625 C 6.242188 -2.023438 6.054688 -1.953125 5.890625 -1.921875 C 5.722656 -1.898438 5.40625 -1.890625 4.9375 -1.890625 C 4.457031 -1.890625 4.132812 -1.90625 3.96875 -1.9375 C 3.800781 -1.976562 3.566406 -2.0625 3.265625 -2.1875 C 2.566406 -2.539062 2.019531 -3.0625 1.625 -3.75 C 1.238281 -4.4375 1.046875 -5.234375 1.046875 -6.140625 C 1.046875 -7.285156 1.351562 -8.375 1.96875 -9.40625 C 2.582031 -10.445312 3.335938 -11.144531 4.234375 -11.5 Z M 6.5625 -10.21875 C 6.363281 -10.382812 6.070312 -10.46875 5.6875 -10.46875 C 5.601562 -10.46875 5.410156 -10.457031 5.109375 -10.4375 C 4.804688 -10.414062 4.484375 -10.269531 4.140625 -10 C 3.859375 -9.800781 3.597656 -9.492188 3.359375 -9.078125 C 3.117188 -8.660156 2.9375 -8.242188 2.8125 -7.828125 L 2.71875 -7.453125 L 3.234375 -7.53125 C 4.234375 -7.675781 5.070312 -7.941406 5.75 -8.328125 C 6.4375 -8.722656 6.78125 -9.144531 6.78125 -9.59375 C 6.78125 -9.84375 6.707031 -10.050781 6.5625 -10.21875 Z M 6.5625 -10.21875 "/></g></g></g><g fill="#ffffff" fill-opacity="1"><g transform="translate(25.770204, 95.369157)"><g><path d="M 3.09375 -14.96875 C 3.226562 -15.09375 3.367188 -15.15625 3.515625 -15.15625 C 3.535156 -15.15625 3.5625 -15.15625 3.59375 -15.15625 C 3.769531 -15.113281 3.882812 -15.070312 3.9375 -15.03125 C 3.957031 -15 3.96875 -14.8125 3.96875 -14.46875 C 3.96875 -14.132812 3.96875 -13.742188 3.96875 -13.296875 L 3.9375 -11.375 L 6.984375 -11.328125 L 7 -10.953125 C 7 -10.910156 7 -10.875 7 -10.84375 C 7 -10.425781 6.8125 -10.171875 6.4375 -10.078125 C 6.238281 -10.023438 5.765625 -9.972656 5.015625 -9.921875 L 3.859375 -9.84375 L 3.796875 -9.078125 C 3.742188 -8.640625 3.71875 -8.054688 3.71875 -7.328125 C 3.71875 -6.960938 3.726562 -6.34375 3.75 -5.46875 C 3.78125 -4.601562 3.828125 -4.0625 3.890625 -3.84375 C 3.953125 -3.625 4.035156 -3.445312 4.140625 -3.3125 C 4.191406 -3.226562 4.238281 -3.179688 4.28125 -3.171875 C 4.320312 -3.171875 4.34375 -3.171875 4.34375 -3.171875 C 4.425781 -3.171875 4.539062 -3.191406 4.6875 -3.234375 C 4.851562 -3.285156 5.023438 -3.378906 5.203125 -3.515625 C 5.390625 -3.660156 5.648438 -3.910156 5.984375 -4.265625 C 6.128906 -4.410156 6.269531 -4.550781 6.40625 -4.6875 C 6.539062 -4.820312 6.648438 -4.921875 6.734375 -4.984375 C 6.816406 -5.054688 6.863281 -5.09375 6.875 -5.09375 L 6.90625 -5.09375 C 6.90625 -5.070312 6.90625 -5.050781 6.90625 -5.03125 C 6.90625 -4.9375 6.832031 -4.6875 6.6875 -4.28125 C 6.550781 -3.882812 6.410156 -3.570312 6.265625 -3.34375 C 5.796875 -2.625 5.363281 -2.191406 4.96875 -2.046875 C 4.582031 -1.898438 4.289062 -1.828125 4.09375 -1.828125 C 3.757812 -1.828125 3.441406 -1.941406 3.140625 -2.171875 C 2.910156 -2.347656 2.71875 -2.570312 2.5625 -2.84375 C 2.414062 -3.125 2.285156 -3.472656 2.171875 -3.890625 C 2.097656 -4.191406 2.050781 -4.535156 2.03125 -4.921875 C 2.019531 -5.316406 2.015625 -6.117188 2.015625 -7.328125 L 2.046875 -9.78125 L 1.390625 -9.84375 C 0.992188 -9.894531 0.710938 -9.953125 0.546875 -10.015625 C 0.378906 -10.085938 0.296875 -10.175781 0.296875 -10.28125 C 0.296875 -10.457031 0.421875 -10.628906 0.671875 -10.796875 C 0.921875 -10.960938 1.222656 -11.070312 1.578125 -11.125 C 1.859375 -11.175781 2.039062 -11.21875 2.125 -11.25 C 2.164062 -11.300781 2.25 -11.773438 2.375 -12.671875 C 2.457031 -13.367188 2.5625 -13.882812 2.6875 -14.21875 C 2.8125 -14.550781 2.945312 -14.800781 3.09375 -14.96875 Z M 3.09375 -14.96875 "/></g></g></g><g fill="#ffffff" fill-opacity="1"><g transform="translate(33.251528, 95.369157)"><g><path d="M 2.296875 -16.359375 C 2.347656 -16.359375 2.394531 -16.359375 2.4375 -16.359375 C 2.519531 -16.359375 2.597656 -16.347656 2.671875 -16.328125 C 2.753906 -16.316406 2.84375 -16.25 2.9375 -16.125 C 3.039062 -16 3.109375 -15.769531 3.140625 -15.4375 C 3.160156 -15.351562 3.171875 -15.269531 3.171875 -15.1875 C 3.171875 -15.019531 3.144531 -14.878906 3.09375 -14.765625 C 3.03125 -14.546875 2.894531 -14.390625 2.6875 -14.296875 C 2.5625 -14.222656 2.445312 -14.1875 2.34375 -14.1875 C 2.320312 -14.1875 2.285156 -14.191406 2.234375 -14.203125 C 2.191406 -14.210938 2.15625 -14.222656 2.125 -14.234375 C 2 -14.285156 1.882812 -14.375 1.78125 -14.5 C 1.6875 -14.625 1.628906 -14.757812 1.609375 -14.90625 C 1.585938 -15.0625 1.578125 -15.179688 1.578125 -15.265625 C 1.578125 -15.398438 1.59375 -15.53125 1.625 -15.65625 C 1.675781 -15.8125 1.773438 -15.96875 1.921875 -16.125 C 2.066406 -16.28125 2.191406 -16.359375 2.296875 -16.359375 Z M 1.96875 -11.59375 C 2.070312 -11.695312 2.179688 -11.75 2.296875 -11.75 C 2.328125 -11.75 2.390625 -11.734375 2.484375 -11.703125 C 2.585938 -11.679688 2.695312 -11.554688 2.8125 -11.328125 C 2.914062 -11.140625 2.972656 -10.90625 2.984375 -10.625 C 3.003906 -10.34375 3.015625 -9.910156 3.015625 -9.328125 C 3.015625 -8.722656 3.007812 -8 3 -7.15625 C 3 -5.3125 2.972656 -4.082031 2.921875 -3.46875 C 2.867188 -2.851562 2.75 -2.421875 2.5625 -2.171875 C 2.4375 -1.984375 2.316406 -1.882812 2.203125 -1.875 C 2.097656 -1.875 2.035156 -1.875 2.015625 -1.875 C 1.847656 -1.875 1.71875 -1.960938 1.625 -2.140625 C 1.507812 -2.359375 1.453125 -3.234375 1.453125 -4.765625 C 1.453125 -5.515625 1.46875 -6.421875 1.5 -7.484375 C 1.550781 -9.078125 1.609375 -10.125 1.671875 -10.625 C 1.734375 -11.125 1.832031 -11.445312 1.96875 -11.59375 Z M 1.96875 -11.59375 "/></g></g></g><g fill="#ffffff" fill-opacity="1"><g transform="translate(37.665509, 95.369157)"><g><path d="M 3.09375 -14.96875 C 3.226562 -15.09375 3.367188 -15.15625 3.515625 -15.15625 C 3.535156 -15.15625 3.5625 -15.15625 3.59375 -15.15625 C 3.769531 -15.113281 3.882812 -15.070312 3.9375 -15.03125 C 3.957031 -15 3.96875 -14.8125 3.96875 -14.46875 C 3.96875 -14.132812 3.96875 -13.742188 3.96875 -13.296875 L 3.9375 -11.375 L 6.984375 -11.328125 L 7 -10.953125 C 7 -10.910156 7 -10.875 7 -10.84375 C 7 -10.425781 6.8125 -10.171875 6.4375 -10.078125 C 6.238281 -10.023438 5.765625 -9.972656 5.015625 -9.921875 L 3.859375 -9.84375 L 3.796875 -9.078125 C 3.742188 -8.640625 3.71875 -8.054688 3.71875 -7.328125 C 3.71875 -6.960938 3.726562 -6.34375 3.75 -5.46875 C 3.78125 -4.601562 3.828125 -4.0625 3.890625 -3.84375 C 3.953125 -3.625 4.035156 -3.445312 4.140625 -3.3125 C 4.191406 -3.226562 4.238281 -3.179688 4.28125 -3.171875 C 4.320312 -3.171875 4.34375 -3.171875 4.34375 -3.171875 C 4.425781 -3.171875 4.539062 -3.191406 4.6875 -3.234375 C 4.851562 -3.285156 5.023438 -3.378906 5.203125 -3.515625 C 5.390625 -3.660156 5.648438 -3.910156 5.984375 -4.265625 C 6.128906 -4.410156 6.269531 -4.550781 6.40625 -4.6875 C 6.539062 -4.820312 6.648438 -4.921875 6.734375 -4.984375 C 6.816406 -5.054688 6.863281 -5.09375 6.875 -5.09375 L 6.90625 -5.09375 C 6.90625 -5.070312 6.90625 -5.050781 6.90625 -5.03125 C 6.90625 -4.9375 6.832031 -4.6875 6.6875 -4.28125 C 6.550781 -3.882812 6.410156 -3.570312 6.265625 -3.34375 C 5.796875 -2.625 5.363281 -2.191406 4.96875 -2.046875 C 4.582031 -1.898438 4.289062 -1.828125 4.09375 -1.828125 C 3.757812 -1.828125 3.441406 -1.941406 3.140625 -2.171875 C 2.910156 -2.347656 2.71875 -2.570312 2.5625 -2.84375 C 2.414062 -3.125 2.285156 -3.472656 2.171875 -3.890625 C 2.097656 -4.191406 2.050781 -4.535156 2.03125 -4.921875 C 2.019531 -5.316406 2.015625 -6.117188 2.015625 -7.328125 L 2.046875 -9.78125 L 1.390625 -9.84375 C 0.992188 -9.894531 0.710938 -9.953125 0.546875 -10.015625 C 0.378906 -10.085938 0.296875 -10.175781 0.296875 -10.28125 C 0.296875 -10.457031 0.421875 -10.628906 0.671875 -10.796875 C 0.921875 -10.960938 1.222656 -11.070312 1.578125 -11.125 C 1.859375 -11.175781 2.039062 -11.21875 2.125 -11.25 C 2.164062 -11.300781 2.25 -11.773438 2.375 -12.671875 C 2.457031 -13.367188 2.5625 -13.882812 2.6875 -14.21875 C 2.8125 -14.550781 2.945312 -14.800781 3.09375 -14.96875 Z M 3.09375 -14.96875 "/></g></g></g><g fill="#ffffff" fill-opacity="1"><g transform="translate(45.146833, 95.369157)"><g/></g></g><g fill="#ffffff" fill-opacity="1"><g transform="translate(51.381267, 95.369157)"><g><path d="M 12.6875 -15.40625 C 13.007812 -15.8125 13.238281 -16.070312 13.375 -16.1875 C 13.519531 -16.300781 13.660156 -16.359375 13.796875 -16.359375 C 13.890625 -16.359375 13.972656 -16.34375 14.046875 -16.3125 C 14.128906 -16.28125 14.195312 -16.207031 14.25 -16.09375 C 14.3125 -15.988281 14.390625 -15.851562 14.484375 -15.6875 C 14.585938 -15.519531 14.660156 -15.273438 14.703125 -14.953125 C 14.753906 -14.640625 14.832031 -14.285156 14.9375 -13.890625 C 15.050781 -13.503906 15.164062 -13.015625 15.28125 -12.421875 C 16.132812 -8.046875 16.628906 -5.148438 16.765625 -3.734375 C 16.796875 -3.359375 16.8125 -3.078125 16.8125 -2.890625 C 16.8125 -2.753906 16.800781 -2.671875 16.78125 -2.640625 C 16.75 -2.578125 16.722656 -2.53125 16.703125 -2.5 C 16.703125 -2.476562 16.710938 -2.457031 16.734375 -2.4375 C 16.734375 -2.4375 16.734375 -2.429688 16.734375 -2.421875 C 16.734375 -2.390625 16.679688 -2.335938 16.578125 -2.265625 C 16.492188 -2.234375 16.4375 -2.21875 16.40625 -2.21875 C 16.394531 -2.21875 16.390625 -2.226562 16.390625 -2.25 C 16.347656 -2.25 16.28125 -2.207031 16.1875 -2.125 C 16.070312 -2 15.988281 -1.9375 15.9375 -1.9375 C 15.914062 -1.9375 15.898438 -1.9375 15.890625 -1.9375 C 15.734375 -2.039062 15.507812 -2.785156 15.21875 -4.171875 C 14.925781 -5.566406 14.453125 -7.6875 13.796875 -10.53125 C 13.492188 -11.601562 13.300781 -12.425781 13.21875 -13 L 13.109375 -13.859375 L 12.671875 -13.390625 C 12.347656 -13.023438 11.988281 -12.441406 11.59375 -11.640625 C 11.195312 -10.847656 10.773438 -9.96875 10.328125 -9 C 9.773438 -7.832031 9.441406 -7.175781 9.328125 -7.03125 C 9.210938 -6.863281 9.046875 -6.773438 8.828125 -6.765625 C 8.773438 -6.765625 8.722656 -6.765625 8.671875 -6.765625 C 8.523438 -6.765625 8.351562 -6.804688 8.15625 -6.890625 C 7.96875 -6.984375 7.757812 -7.179688 7.53125 -7.484375 C 7.300781 -7.796875 7.007812 -8.316406 6.65625 -9.046875 C 5.226562 -12.085938 4.460938 -13.609375 4.359375 -13.609375 C 4.273438 -13.609375 4.117188 -13.21875 3.890625 -12.4375 C 3.660156 -11.65625 3.46875 -10.773438 3.3125 -9.796875 C 3.164062 -8.816406 2.976562 -7.679688 2.75 -6.390625 C 2.425781 -4.523438 2.21875 -3.378906 2.125 -2.953125 C 2.039062 -2.523438 1.898438 -2.253906 1.703125 -2.140625 C 1.628906 -2.078125 1.566406 -2.046875 1.515625 -2.046875 C 1.503906 -2.046875 1.484375 -2.046875 1.453125 -2.046875 C 1.429688 -2.054688 1.363281 -2.101562 1.25 -2.1875 C 1.082031 -2.320312 0.972656 -2.484375 0.921875 -2.671875 C 0.867188 -2.867188 0.8125 -3.066406 0.75 -3.265625 C 0.675781 -3.460938 0.640625 -3.679688 0.640625 -3.921875 C 0.640625 -4.003906 0.640625 -4.085938 0.640625 -4.171875 C 0.796875 -5.066406 1.207031 -7.09375 1.875 -10.25 C 2.050781 -11.144531 2.328125 -12.113281 2.703125 -13.15625 C 3.078125 -14.195312 3.363281 -14.859375 3.5625 -15.140625 C 3.757812 -15.429688 3.921875 -15.585938 4.046875 -15.609375 C 4.085938 -15.628906 4.132812 -15.640625 4.1875 -15.640625 C 4.300781 -15.640625 4.445312 -15.578125 4.625 -15.453125 C 4.8125 -15.335938 5.039062 -15.097656 5.3125 -14.734375 C 5.675781 -14.273438 6.007812 -13.785156 6.3125 -13.265625 C 6.625 -12.753906 7.039062 -11.941406 7.5625 -10.828125 C 7.84375 -10.210938 8.191406 -9.515625 8.609375 -8.734375 C 9.222656 -10.023438 9.863281 -11.21875 10.53125 -12.3125 C 11.207031 -13.414062 11.925781 -14.445312 12.6875 -15.40625 Z M 12.6875 -15.40625 "/></g></g></g><g fill="#ffffff" fill-opacity="1"><g transform="translate(69.236699, 95.369157)"><g><path d="M 3.890625 -11.75 C 4.078125 -11.8125 4.242188 -11.863281 4.390625 -11.90625 C 4.535156 -11.945312 4.707031 -11.96875 4.90625 -11.96875 C 5.03125 -11.96875 5.175781 -11.96875 5.34375 -11.96875 C 5.914062 -11.90625 6.414062 -11.695312 6.84375 -11.34375 C 7.269531 -11 7.484375 -10.328125 7.484375 -9.328125 L 7.484375 -7.375 C 7.484375 -6.25 7.488281 -5.503906 7.5 -5.140625 C 7.519531 -4.785156 7.554688 -4.484375 7.609375 -4.234375 C 7.691406 -3.785156 7.769531 -3.503906 7.84375 -3.390625 C 7.914062 -3.285156 8.101562 -3.21875 8.40625 -3.1875 C 8.4375 -3.1875 8.460938 -3.1875 8.484375 -3.1875 C 8.710938 -3.1875 8.859375 -3.253906 8.921875 -3.390625 C 9.078125 -3.640625 9.179688 -3.765625 9.234375 -3.765625 C 9.234375 -3.765625 9.238281 -3.753906 9.25 -3.734375 C 9.269531 -3.722656 9.285156 -3.71875 9.296875 -3.71875 C 9.265625 -3.769531 9.25 -3.8125 9.25 -3.84375 C 9.25 -3.851562 9.257812 -3.859375 9.28125 -3.859375 C 9.3125 -3.859375 9.351562 -3.84375 9.40625 -3.8125 C 9.488281 -3.757812 9.53125 -3.6875 9.53125 -3.59375 C 9.53125 -3.539062 9.519531 -3.484375 9.5 -3.421875 C 9.445312 -3.285156 9.378906 -3.117188 9.296875 -2.921875 C 9.210938 -2.734375 9.023438 -2.488281 8.734375 -2.1875 C 8.441406 -1.90625 8.195312 -1.765625 8 -1.765625 C 7.96875 -1.765625 7.945312 -1.765625 7.9375 -1.765625 C 7.613281 -1.804688 7.335938 -1.90625 7.109375 -2.0625 C 6.890625 -2.21875 6.648438 -2.578125 6.390625 -3.140625 C 6.265625 -3.390625 6.179688 -3.515625 6.140625 -3.515625 C 6.117188 -3.515625 6.109375 -3.515625 6.109375 -3.515625 C 6.046875 -3.515625 5.847656 -3.347656 5.515625 -3.015625 C 4.679688 -2.234375 3.863281 -1.84375 3.0625 -1.84375 C 2.894531 -1.84375 2.726562 -1.859375 2.5625 -1.890625 C 2.332031 -1.921875 2.15625 -1.972656 2.03125 -2.046875 C 1.90625 -2.128906 1.742188 -2.269531 1.546875 -2.46875 C 1.097656 -2.9375 0.863281 -3.34375 0.84375 -3.6875 C 0.832031 -4.039062 0.828125 -4.242188 0.828125 -4.296875 C 0.828125 -4.890625 1.007812 -5.476562 1.375 -6.0625 C 1.738281 -6.644531 2.257812 -7.117188 2.9375 -7.484375 C 3.257812 -7.648438 3.707031 -7.8125 4.28125 -7.96875 C 4.851562 -8.125 5.296875 -8.203125 5.609375 -8.203125 L 5.859375 -8.203125 L 5.859375 -9.25 C 5.859375 -9.71875 5.816406 -10.066406 5.734375 -10.296875 C 5.648438 -10.523438 5.507812 -10.664062 5.3125 -10.71875 C 5.25 -10.738281 5.175781 -10.75 5.09375 -10.75 C 4.882812 -10.75 4.601562 -10.703125 4.25 -10.609375 C 3.894531 -10.515625 3.492188 -10.351562 3.046875 -10.125 C 2.460938 -9.820312 2.132812 -9.671875 2.0625 -9.671875 C 2.019531 -9.671875 1.992188 -9.695312 1.984375 -9.75 C 1.972656 -9.800781 1.96875 -9.832031 1.96875 -9.84375 C 1.96875 -9.925781 1.988281 -10.035156 2.03125 -10.171875 C 2.070312 -10.304688 2.132812 -10.414062 2.21875 -10.5 C 2.363281 -10.71875 2.609375 -10.953125 2.953125 -11.203125 C 3.296875 -11.453125 3.609375 -11.632812 3.890625 -11.75 Z M 5.765625 -4.90625 L 5.765625 -7.125 L 5.46875 -7.125 C 4.976562 -7.113281 4.492188 -7.007812 4.015625 -6.8125 C 3.535156 -6.625 3.195312 -6.398438 3 -6.140625 C 2.757812 -5.835938 2.601562 -5.53125 2.53125 -5.21875 C 2.46875 -4.914062 2.4375 -4.664062 2.4375 -4.46875 C 2.4375 -4.28125 2.46875 -4.054688 2.53125 -3.796875 C 2.59375 -3.546875 2.726562 -3.359375 2.9375 -3.234375 C 3.050781 -3.171875 3.175781 -3.140625 3.3125 -3.140625 C 3.53125 -3.140625 3.828125 -3.234375 4.203125 -3.421875 C 4.585938 -3.617188 4.972656 -3.945312 5.359375 -4.40625 Z M 5.765625 -4.90625 "/></g></g></g><g fill="#ffffff" fill-opacity="1"><g transform="translate(78.638225, 95.369157)"><g><path d="M 1.796875 -11.640625 C 1.890625 -11.742188 2.0625 -11.796875 2.3125 -11.796875 C 2.476562 -11.796875 2.59375 -11.78125 2.65625 -11.75 C 2.71875 -11.71875 2.789062 -11.625 2.875 -11.46875 C 2.9375 -11.269531 3 -10.9375 3.0625 -10.46875 L 3.140625 -9.828125 L 3.515625 -10.328125 C 3.710938 -10.578125 3.960938 -10.828125 4.265625 -11.078125 C 4.578125 -11.335938 4.84375 -11.507812 5.0625 -11.59375 C 5.257812 -11.664062 5.5 -11.703125 5.78125 -11.703125 C 5.976562 -11.703125 6.085938 -11.691406 6.109375 -11.671875 C 6.140625 -11.648438 6.15625 -11.625 6.15625 -11.59375 C 6.15625 -11.5625 6.148438 -11.515625 6.140625 -11.453125 C 6.085938 -11.242188 6.003906 -11.085938 5.890625 -10.984375 C 5.785156 -10.878906 5.507812 -10.675781 5.0625 -10.375 C 4.550781 -10.039062 4.160156 -9.695312 3.890625 -9.34375 C 3.742188 -9.164062 3.640625 -9.035156 3.578125 -8.953125 C 3.515625 -8.867188 3.445312 -8.738281 3.375 -8.5625 C 3.300781 -8.382812 3.253906 -8.242188 3.234375 -8.140625 C 3.222656 -8.035156 3.203125 -7.796875 3.171875 -7.421875 C 3.148438 -7.046875 3.132812 -6.734375 3.125 -6.484375 C 3.113281 -6.234375 3.101562 -5.8125 3.09375 -5.21875 C 3.0625 -3.976562 3.03125 -3.210938 3 -2.921875 C 2.976562 -2.640625 2.925781 -2.429688 2.84375 -2.296875 C 2.695312 -2.128906 2.519531 -2.007812 2.3125 -1.9375 C 2.21875 -1.90625 2.132812 -1.890625 2.0625 -1.890625 C 2.050781 -1.890625 2.023438 -1.894531 1.984375 -1.90625 C 1.941406 -1.925781 1.867188 -1.988281 1.765625 -2.09375 C 1.597656 -2.289062 1.503906 -2.585938 1.484375 -2.984375 C 1.460938 -3.390625 1.453125 -3.890625 1.453125 -4.484375 C 1.453125 -5.085938 1.457031 -5.851562 1.46875 -6.78125 C 1.5 -8.8125 1.535156 -10.101562 1.578125 -10.65625 C 1.617188 -11.21875 1.691406 -11.546875 1.796875 -11.640625 Z M 1.796875 -11.640625 "/></g></g></g><g fill="#ffffff" fill-opacity="1"><g transform="translate(84.473605, 95.369157)"><g><path d="M 3.984375 -11.328125 C 4.304688 -11.492188 4.59375 -11.613281 4.84375 -11.6875 C 5.09375 -11.757812 5.378906 -11.796875 5.703125 -11.796875 C 6.140625 -11.796875 6.460938 -11.757812 6.671875 -11.6875 C 6.878906 -11.613281 7.082031 -11.484375 7.28125 -11.296875 C 7.757812 -10.878906 8.023438 -10.421875 8.078125 -9.921875 C 8.078125 -9.867188 8.078125 -9.828125 8.078125 -9.796875 C 8.078125 -9.597656 8.007812 -9.421875 7.875 -9.265625 C 7.75 -9.117188 7.566406 -9.03125 7.328125 -9 C 7.234375 -8.988281 7.148438 -8.984375 7.078125 -8.984375 C 6.992188 -8.984375 6.929688 -9.003906 6.890625 -9.046875 C 6.847656 -9.085938 6.828125 -9.171875 6.828125 -9.296875 C 6.828125 -9.367188 6.835938 -9.460938 6.859375 -9.578125 L 6.9375 -10.09375 L 6.578125 -10.21875 C 6.367188 -10.320312 6.128906 -10.375 5.859375 -10.375 C 5.597656 -10.375 5.304688 -10.320312 4.984375 -10.21875 C 4.503906 -10.09375 4.070312 -9.789062 3.6875 -9.3125 C 3.300781 -8.84375 3.03125 -8.332031 2.875 -7.78125 C 2.71875 -7.226562 2.640625 -6.726562 2.640625 -6.28125 C 2.640625 -6.113281 2.648438 -5.945312 2.671875 -5.78125 C 2.722656 -5.414062 2.847656 -5.023438 3.046875 -4.609375 C 3.253906 -4.191406 3.46875 -3.921875 3.6875 -3.796875 C 4.070312 -3.546875 4.476562 -3.421875 4.90625 -3.421875 C 5.625 -3.421875 6.398438 -3.789062 7.234375 -4.53125 C 7.566406 -4.832031 7.78125 -4.984375 7.875 -4.984375 C 7.894531 -4.984375 7.90625 -4.976562 7.90625 -4.96875 C 7.9375 -4.945312 7.953125 -4.894531 7.953125 -4.8125 C 7.953125 -4.726562 7.9375 -4.613281 7.90625 -4.46875 C 7.820312 -4.050781 7.597656 -3.625 7.234375 -3.1875 C 6.867188 -2.757812 6.441406 -2.421875 5.953125 -2.171875 C 5.640625 -2.015625 5.320312 -1.929688 5 -1.921875 C 4.6875 -1.921875 4.523438 -1.921875 4.515625 -1.921875 C 3.953125 -1.921875 3.507812 -2.003906 3.1875 -2.171875 C 2.507812 -2.484375 1.984375 -2.976562 1.609375 -3.65625 C 1.234375 -4.34375 1.046875 -5.148438 1.046875 -6.078125 C 1.046875 -6.648438 1.09375 -7.160156 1.1875 -7.609375 C 1.289062 -8.054688 1.46875 -8.519531 1.71875 -9 C 1.9375 -9.445312 2.257812 -9.890625 2.6875 -10.328125 C 3.125 -10.773438 3.554688 -11.109375 3.984375 -11.328125 Z M 3.984375 -11.328125 "/></g></g></g><g fill="#ffffff" fill-opacity="1"><g transform="translate(93.052189, 95.369157)"><g><path d="M 1.9375 -15.78125 C 2.019531 -15.9375 2.171875 -16.015625 2.390625 -16.015625 C 2.773438 -16.015625 3.054688 -15.722656 3.234375 -15.140625 C 3.335938 -14.859375 3.398438 -13.832031 3.421875 -12.0625 L 3.4375 -9.625 L 4.1875 -10.328125 C 5.050781 -11.140625 5.882812 -11.597656 6.6875 -11.703125 C 6.800781 -11.710938 6.90625 -11.71875 7 -11.71875 C 7.21875 -11.71875 7.425781 -11.675781 7.625 -11.59375 C 7.832031 -11.507812 8.035156 -11.351562 8.234375 -11.125 C 8.648438 -10.675781 8.925781 -10.164062 9.0625 -9.59375 C 9.207031 -9.03125 9.3125 -7.859375 9.375 -6.078125 C 9.40625 -5.035156 9.445312 -4.3125 9.5 -3.90625 C 9.550781 -3.507812 9.632812 -3.101562 9.75 -2.6875 C 9.75 -2.675781 9.75 -2.660156 9.75 -2.640625 C 9.75 -2.492188 9.648438 -2.316406 9.453125 -2.109375 C 9.253906 -1.898438 9.046875 -1.796875 8.828125 -1.796875 C 8.640625 -1.796875 8.492188 -1.835938 8.390625 -1.921875 C 8.285156 -2.015625 8.191406 -2.210938 8.109375 -2.515625 C 8.035156 -2.816406 7.972656 -3.195312 7.921875 -3.65625 C 7.878906 -4.113281 7.84375 -4.773438 7.8125 -5.640625 C 7.738281 -7.347656 7.648438 -8.472656 7.546875 -9.015625 C 7.453125 -9.566406 7.296875 -9.960938 7.078125 -10.203125 C 6.960938 -10.296875 6.816406 -10.34375 6.640625 -10.34375 C 6.429688 -10.34375 6.125 -10.257812 5.71875 -10.09375 C 5.3125 -9.925781 4.867188 -9.585938 4.390625 -9.078125 C 3.953125 -8.640625 3.6875 -8.320312 3.59375 -8.125 C 3.488281 -7.914062 3.390625 -7.070312 3.296875 -5.59375 C 3.191406 -4.1875 3.082031 -3.242188 2.96875 -2.765625 C 2.851562 -2.285156 2.675781 -1.976562 2.4375 -1.84375 C 2.375 -1.8125 2.3125 -1.796875 2.25 -1.796875 C 2.164062 -1.796875 2.046875 -1.820312 1.890625 -1.875 C 1.742188 -1.9375 1.644531 -2.082031 1.59375 -2.3125 C 1.539062 -2.53125 1.5 -3.082031 1.46875 -3.96875 C 1.46875 -4.144531 1.46875 -4.34375 1.46875 -4.5625 C 1.46875 -5.226562 1.503906 -6.023438 1.578125 -6.953125 C 1.660156 -7.984375 1.71875 -9.738281 1.75 -12.21875 C 1.757812 -13.476562 1.773438 -14.363281 1.796875 -14.875 C 1.828125 -15.394531 1.875 -15.695312 1.9375 -15.78125 Z M 1.9375 -15.78125 "/></g></g></g><g fill="#ffffff" fill-opacity="1"><g transform="translate(104.049731, 95.369157)"><g><path d="M 7.234375 -17.03125 C 7.398438 -17.132812 7.582031 -17.1875 7.78125 -17.1875 C 7.800781 -17.1875 7.828125 -17.1875 7.859375 -17.1875 C 8.003906 -17.164062 8.101562 -17.132812 8.15625 -17.09375 C 8.21875 -17.050781 8.289062 -16.960938 8.375 -16.828125 C 8.445312 -16.679688 8.484375 -16.570312 8.484375 -16.5 C 8.484375 -16.4375 8.457031 -16.335938 8.40625 -16.203125 C 8.300781 -16.054688 8.023438 -15.828125 7.578125 -15.515625 C 7.128906 -15.210938 6.628906 -14.9375 6.078125 -14.6875 C 5.453125 -14.375 5.046875 -14.21875 4.859375 -14.21875 C 4.804688 -14.21875 4.773438 -14.234375 4.765625 -14.265625 C 4.742188 -14.285156 4.734375 -14.300781 4.734375 -14.3125 C 4.734375 -14.5 5.046875 -14.929688 5.671875 -15.609375 C 6.296875 -16.296875 6.816406 -16.769531 7.234375 -17.03125 Z M 4.234375 -11.5 C 4.703125 -11.675781 5.210938 -11.765625 5.765625 -11.765625 C 6.210938 -11.765625 6.523438 -11.734375 6.703125 -11.671875 C 6.890625 -11.617188 7.070312 -11.535156 7.25 -11.421875 C 7.664062 -11.148438 7.941406 -10.816406 8.078125 -10.421875 C 8.222656 -10.035156 8.296875 -9.703125 8.296875 -9.421875 C 8.296875 -9.210938 8.273438 -9.003906 8.234375 -8.796875 C 8.117188 -8.453125 7.894531 -8.097656 7.5625 -7.734375 C 7.238281 -7.378906 6.878906 -7.101562 6.484375 -6.90625 C 5.953125 -6.644531 5.457031 -6.484375 5 -6.421875 C 4.539062 -6.359375 4.203125 -6.328125 3.984375 -6.328125 C 3.585938 -6.328125 3.234375 -6.378906 2.921875 -6.484375 C 2.890625 -6.484375 2.863281 -6.484375 2.84375 -6.484375 C 2.789062 -6.484375 2.75 -6.46875 2.71875 -6.4375 C 2.695312 -6.40625 2.6875 -6.28125 2.6875 -6.0625 C 2.6875 -5.53125 2.800781 -5.054688 3.03125 -4.640625 C 3.269531 -4.222656 3.609375 -3.878906 4.046875 -3.609375 C 4.222656 -3.515625 4.394531 -3.445312 4.5625 -3.40625 C 4.726562 -3.363281 4.96875 -3.332031 5.28125 -3.3125 C 5.382812 -3.3125 5.476562 -3.3125 5.5625 -3.3125 C 5.988281 -3.3125 6.363281 -3.382812 6.6875 -3.53125 C 7.019531 -3.6875 7.414062 -4.003906 7.875 -4.484375 C 8.257812 -4.890625 8.507812 -5.09375 8.625 -5.09375 C 8.65625 -5.09375 8.671875 -5.070312 8.671875 -5.03125 C 8.691406 -5 8.703125 -4.96875 8.703125 -4.9375 C 8.703125 -4.820312 8.671875 -4.671875 8.609375 -4.484375 C 8.367188 -3.554688 7.648438 -2.773438 6.453125 -2.140625 C 6.242188 -2.023438 6.054688 -1.953125 5.890625 -1.921875 C 5.722656 -1.898438 5.40625 -1.890625 4.9375 -1.890625 C 4.457031 -1.890625 4.132812 -1.90625 3.96875 -1.9375 C 3.800781 -1.976562 3.566406 -2.0625 3.265625 -2.1875 C 2.566406 -2.539062 2.019531 -3.0625 1.625 -3.75 C 1.238281 -4.4375 1.046875 -5.234375 1.046875 -6.140625 C 1.046875 -7.285156 1.351562 -8.375 1.96875 -9.40625 C 2.582031 -10.445312 3.335938 -11.144531 4.234375 -11.5 Z M 6.5625 -10.21875 C 6.363281 -10.382812 6.070312 -10.46875 5.6875 -10.46875 C 5.601562 -10.46875 5.410156 -10.457031 5.109375 -10.4375 C 4.804688 -10.414062 4.484375 -10.269531 4.140625 -10 C 3.859375 -9.800781 3.597656 -9.492188 3.359375 -9.078125 C 3.117188 -8.660156 2.9375 -8.242188 2.8125 -7.828125 L 2.71875 -7.453125 L 3.234375 -7.53125 C 4.234375 -7.675781 5.070312 -7.941406 5.75 -8.328125 C 6.4375 -8.722656 6.78125 -9.144531 6.78125 -9.59375 C 6.78125 -9.84375 6.707031 -10.050781 6.5625 -10.21875 Z M 6.5625 -10.21875 "/></g></g></g></svg>